<?xml version="1.0" encoding="utf-8"?>
<!-- Svg Vector Icons : http://www.onlinewebfonts.com/icon -->
<!DOCTYPE svg PUBLIC "-//W3C//DTD SVG 1.1//EN" "http://www.w3.org/Graphics/SVG/1.1/DTD/svg11.dtd">
<svg version="1.1" xmlns="http://www.w3.org/2000/svg" xmlns:xlink="http://www.w3.org/1999/xlink" x="0px" y="0px" viewBox="0 0 1000 1000" enable-background="new 0 0 1000 1000" xml:space="preserve">
<metadata> Svg Vector Icons : http://www.onlinewebfonts.com/icon </metadata>
<g><g><g><path d="M500,10c-173.4,0-314,140.6-314,314c0,60.5,17.4,116.8,47.1,164.8c13.6,26.9,31.9,56.5,57,88.8C409.3,730.7,495,963.4,498.3,988.1c3.4,24.7,35.3-195.2,198.1-393.4c0,0,76.9-78.4,101.5-172.2c10.3-31,16-64.1,16-98.6C814,150.6,673.4,10,500,10z M496.6,455.4c-88.1,0-159.5-71.4-159.5-159.5s71.4-159.5,159.5-159.5c88.1,0,159.5,71.4,159.5,159.5C656.1,384,584.7,455.4,496.6,455.4z"/><path d="M571.9,267.1c-2.3-3.3,13.5-68-3.4-74c-13.5-5.2-51.3,38.7-51.3,38.7s-15.1-3.2-20.3-3.2h-4.3c-5.2,0-20.3,2.5-20.3,2.5s-37.9-44.8-51.3-39.5c-16.8,6-1.1,72-3.4,75.4c-11.6,7.1-10.5,30.1-10.5,30.1h-21.3v17.1h25.8c0,0,0.8,0.7,1.5,1.9L380,326.5l5.6,16.1l38.3-7.9c0,0,23.3,30.7,68.6,30.7h4.3c45.3,0,68.6-31,68.6-31l38.3,10.5l5.6-17l-32.9-11.9c0.8-1.1,1.5-1.9,1.5-1.9h47.4v-17.1h-42.9C582.4,297.1,583.5,274.2,571.9,267.1z M454.9,300.1c-7.1,0-12.9-5.8-12.9-12.9c0-7.1,5.8-12.9,12.9-12.9c7.1,0,12.9,5.8,12.9,12.9S462,300.1,454.9,300.1z M535.8,300.1c-7.1,0-12.9-5.8-12.9-12.9c0-7.1,5.8-12.9,12.9-12.9c7.1,0,12.9,5.8,12.9,12.9S542.9,300.1,535.8,300.1z"/></g></g><g></g><g></g><g></g><g></g><g></g><g></g><g></g><g></g><g></g><g></g><g></g><g></g><g></g><g></g><g></g></g>
</svg>